<?xml version="1.0" encoding="UTF-8"?>
<svg id="Layer_1" data-name="Layer 1" xmlns="http://www.w3.org/2000/svg" xmlns:xlink="http://www.w3.org/1999/xlink" viewBox="0 0 42.05 40.2">
  <defs>
    <style>
      .cls-1 {
        fill: #bbbdc1;
      }

      .cls-2 {
        fill: #f5b700;
      }

      .cls-3 {
        clip-path: url(#clippath);
      }

      .cls-4 {
        fill: none;
      }
    </style>
    <clipPath id="clippath">
      <path class="cls-4" d="m41.23,17.8l-8.2,8,1.8,11.3c.2,1-.2,2-1,2.6-.4.3-1,.5-1.5.5-.4,0-.8-.1-1.2-.3l-10.1-5.3-10.2,5.3c-.4.2-.8.3-1.2.3-.5,0-1-.2-1.5-.5-.8-.6-1.2-1.6-1-2.6l1.9-11.2L.83,17.9c-.8-.7-1-1.7-.7-2.7s1.1-1.7,2.1-1.8l11.3-1.6L18.63,1.5c.5-.9,1.4-1.5,2.4-1.5s2,.6,2.4,1.5l5.1,10.3,11.3,1.6c1,.2,1.8.8,2.1,1.8.3.9,0,2-.7,2.6h0Z"/>
    </clipPath>
  </defs>
  <g class="cls-3">
    <rect class="cls-1" x="21.02" width="21.02" height="40.2"/>
    <rect class="cls-2" x="0" y="0" width="21.02" height="40.2"/>
  </g>
</svg>