<?xml version="1.0" encoding="UTF-8"?>
<svg id="Layer_1" data-name="Layer 1" xmlns="http://www.w3.org/2000/svg" viewBox="0 0 2086.55 1735.19">
  <path d="m2021.64,0h-314.75c-31.07,0-57,21.83-63.38,50.97-.2.71-.46,1.39-.64,2.12l-51.99,209.43H72.37c-39.98,0-72.37,28.13-72.37,62.81,0,2.37.18,4.7.48,7-.01,5.47.53,11.01,1.84,16.57l180.48,767.55c8.19,34.8,40.47,57.44,74.49,53.95v.08h1108.23l-51.52,207.53H267.02c-28.36,0-51.38,28.14-51.38,62.83s23.02,62.8,51.38,62.8h130.63c-40.02,20.1-67.55,61.42-67.55,109.25,0,67.56,54.75,122.3,122.28,122.3s122.29-54.74,122.29-122.3c0-47.83-27.53-89.15-67.55-109.25h684.65c-40.02,20.1-67.54,61.42-67.54,109.25,0,67.56,54.75,122.3,122.28,122.3s122.3-54.74,122.3-122.3c0-47.83-27.53-89.15-67.55-109.25h70.84c18.21,0,34.12-11.66,43.24-29.13,4.18-6.3,7.44-13.4,9.38-21.21L1753.26,129.83h268.37c35.87,0,64.92-29.09,64.92-64.92S2057.5,0,2021.63,0h.01ZM153.2,388.14h253.12l29.5,262.59h-220.87l-61.75-262.59Zm153.48,652.69l-61.23-260.4h204.94l29.25,260.4h-172.96,0Zm230.13-652.69h249.35l.87,262.59h-220.72l-29.5-262.59h0Zm73.33,652.69l-29.26-260.4h206.57l.86,260.4h-178.18.01Zm473.33,0h-165.5l-.86-260.4h198.56l-32.2,260.4h0Zm48.24-390.1h-215.03l-.87-262.59h248.38l-32.48,262.59Zm265.96,390.1h-183.55l32.21-260.4h215.98l-64.64,260.4Zm96.83-390.1h-232.14l32.48-262.59h264.84l-65.18,262.59Z"/>
</svg>